<svg width="56" height="56" viewBox="0 0 56 56" fill="none" xmlns="http://www.w3.org/2000/svg">
<path d="M18.6667 37.3333L39.0133 35.637C45.381 35.1073 46.809 33.7167 47.5137 27.3677L49 14M14 14H51.3333" stroke="#F37040" stroke-width="3.5" stroke-linecap="round"/>
<path d="M14.0007 51.3333C16.578 51.3333 18.6673 49.244 18.6673 46.6667C18.6673 44.0893 16.578 42 14.0007 42C11.4233 42 9.33398 44.0893 9.33398 46.6667C9.33398 49.244 11.4233 51.3333 14.0007 51.3333Z" stroke="#F37040" stroke-width="3.5"/>
<path d="M39.6667 51.3333C42.244 51.3333 44.3333 49.244 44.3333 46.6667C44.3333 44.0893 42.244 42 39.6667 42C37.0893 42 35 44.0893 35 46.6667C35 49.244 37.0893 51.3333 39.6667 51.3333Z" stroke="#F37040" stroke-width="3.5"/>
<path d="M18.667 46.6667H35.0003M4.66699 4.66669H6.92099C9.12599 4.66669 11.0463 6.12502 11.5807 8.20169L18.527 35.1774C18.6993 35.852 18.7153 36.5571 18.5738 37.2388C18.4323 37.9206 18.1369 38.5611 17.7103 39.1114L15.4727 42" stroke="#F37040" stroke-width="3.5" stroke-linecap="round"/>
</svg>
